<svg width="214" height="175" viewBox="0 0 214 175" fill="none" xmlns="http://www.w3.org/2000/svg">
<path opacity="0.1" d="M67.2 174.72C46.24 174.72 29.76 166.8 17.76 150.96C5.92001 134.96 6.13928e-06 113.76 6.13928e-06 87.36C6.13928e-06 60.96 5.92001 39.84 17.76 24C29.76 7.99998 46.24 -2.57492e-05 67.2 -2.57492e-05C88.32 -2.57492e-05 104.8 7.99998 116.64 24C128.48 39.84 134.4 60.96 134.4 87.36C134.4 113.76 128.48 134.96 116.64 150.96C104.8 166.8 88.32 174.72 67.2 174.72ZM41.76 128.4C47.52 137.68 56 142.32 67.2 142.32C78.4 142.32 86.88 137.6 92.64 128.16C98.56 118.72 101.52 105.12 101.52 87.36C101.52 69.44 98.56 55.76 92.64 46.32C86.88 36.88 78.4 32.16 67.2 32.16C56 32.16 47.52 36.88 41.76 46.32C36 55.76 33.12 69.44 33.12 87.36C33.12 105.28 36 118.96 41.76 128.4ZM184.884 3.35997H213.684V171.36H180.564V38.4L148.884 47.28L140.724 18.96L184.884 3.35997Z" fill="white"/>
</svg>
