<svg width="260" height="175" viewBox="0 0 260 175" fill="none" xmlns="http://www.w3.org/2000/svg">
<path opacity="0.1" d="M67.2 174.72C46.24 174.72 29.76 166.8 17.76 150.96C5.92001 134.96 6.13928e-06 113.76 6.13928e-06 87.3601C6.13928e-06 60.9601 5.92001 39.8401 17.76 24.0001C29.76 8.0001 46.24 9.63211e-05 67.2 9.63211e-05C88.32 9.63211e-05 104.8 8.0001 116.64 24.0001C128.48 39.8401 134.4 60.9601 134.4 87.3601C134.4 113.76 128.48 134.96 116.64 150.96C104.8 166.8 88.32 174.72 67.2 174.72ZM41.76 128.4C47.52 137.68 56 142.32 67.2 142.32C78.4 142.32 86.88 137.6 92.64 128.16C98.56 118.72 101.52 105.12 101.52 87.3601C101.52 69.4401 98.56 55.7601 92.64 46.3201C86.88 36.8801 78.4 32.1601 67.2 32.1601C56 32.1601 47.52 36.8801 41.76 46.3201C36 55.7601 33.12 69.4401 33.12 87.3601C33.12 105.28 36 118.96 41.76 128.4ZM220.695 71.5201C232.055 74.8801 241.255 80.8001 248.295 89.2801C255.495 97.6001 259.095 107.68 259.095 119.52C259.095 136.8 253.255 150.32 241.575 160.08C230.055 169.84 215.895 174.72 199.095 174.72C185.975 174.72 174.215 171.76 163.815 165.84C153.575 159.76 146.135 150.88 141.495 139.2L169.815 122.88C173.975 135.84 183.735 142.32 199.095 142.32C207.575 142.32 214.135 140.32 218.775 136.32C223.575 132.16 225.975 126.56 225.975 119.52C225.975 112.64 223.575 107.12 218.775 102.96C214.135 98.8001 207.575 96.7201 199.095 96.7201H191.895L179.175 77.5201L212.295 34.3201H146.535V3.3601H252.135V30.7201L220.695 71.5201Z" fill="white"/>
</svg>
